<svg width="74px" height="120px" viewBox="0 0 74 120" version="1.1" xmlns="http://www.w3.org/2000/svg" xmlns:xlink="http://www.w3.org/1999/xlink">

<polygon fill="#FFF02A" points="62.7678019 2.99071207 70.473065 2.99071207 70.473065 105.737461 3.00185759 105.737461 3.00185759 84.8470588"></polygon>
<polygon fill="#EB212E" points="2.96842105 2.96842105 3.00185759 84.676161 62.7640867 2.99071207"></polygon>
<path d="M73.4860681,108.687307 L0,108.687307 L0,0 L73.4860681,0 L73.4860681,108.687307 Z M2.7752322,105.912074 L70.7108359,105.912074 L70.7108359,2.7752322 L2.7752322,2.7752322 L2.7752322,105.912074 Z" fill="#FFFFFF"></path>
<path d="M1.57894737,1.57894737 L1.57894737,107.108359 L71.9034056,107.108359 L71.9034056,1.57894737 L1.57894737,1.57894737 Z M69.1318885,4.35417957 L69.1318885,104.333127 L4.35417957,104.333127 L4.35417957,4.35417957 L69.1318885,4.35417957 Z" fill="#000000"></path>
<polygon fill="#0096D7" points="61.7609907 4.36904025 1.71640867 86.3739938 8.69349845 86.6897833 61.2334365 15.4402477"></polygon>
<polygon fill="#000000" points="54.326935 52.8148607 26.7380805 34.5882353 56.5040248 19.679257"></polygon>
<polygon fill="#000000" points="52.625387 83.1380805 32.2365325 83.1455108 42.479257 65.3535604"></polygon>
<path d="M37.549226,93.1541796 C37.593808,88.9560372 46.8371517,89.2978328 50.6563467,93.1541796 L37.549226,93.1541796 Z" fill="#EB212E"></path>
<path d="M4.93374613,118.209288 L3.81919505,119.643344 L1.04396285,119.643344 L6.31578947,112.662539 L8.35913313,112.662539 L13.4897833,119.628483 L10.6736842,119.628483 L9.63343653,118.194427 L4.93374613,118.209288 Z M7.21114551,114.657585 L7.17399381,114.657585 L5.6879257,117.128173 L8.91640867,117.128173 L7.21114551,114.657585 Z"></path>
<polygon points="22.4879257 118.491641 26.203096 118.491641 26.203096 119.628483 19.8501548 119.628483 19.8501548 112.840867 22.4879257 112.840867"></polygon>
<polygon points="37.0105263 119.628483 34.3727554 119.628483 34.3727554 113.981424 31.6458204 113.981424 31.6458204 112.826006 39.752322 112.826006 39.752322 113.981424 37.0105263 113.981424"></polygon>
<polygon points="48.8990712 113.996285 48.8990712 115.482353 53.0934985 115.482353 53.0934985 116.656347 48.8990712 116.656347 48.8990712 118.513932 53.2569659 118.513932 53.2569659 119.628483 46.2613003 119.628483 46.2613003 112.840867 53.2569659 112.840867 53.2569659 113.996285"></polygon>
<polygon points="60.5572755 112.662539 62.4594427 112.662539 69.577709 117.417957 69.6148607 117.417957 69.6148607 112.840867 72.2489164 112.840867 72.2489164 119.780805 70.3467492 119.780805 63.228483 115.025387 63.1950464 115.025387 63.1950464 119.628483 60.5572755 119.628483"></polygon>
</svg>